<svg id="visual" viewBox="0 0 1920 1080" width="1920" height="1080" xmlns="http://www.w3.org/2000/svg" xmlns:xlink="http://www.w3.org/1999/xlink" version="1.1"><rect x="0" y="0" width="1920" height="1080" fill="#070913"></rect><defs><linearGradient id="grad1_0" x1="43.8%" y1="0%" x2="100%" y2="100%"><stop offset="14.444444444444446%" stop-color="#a7ff00" stop-opacity="1"></stop><stop offset="85.55555555555554%" stop-color="#a7ff00" stop-opacity="1"></stop></linearGradient></defs><defs><linearGradient id="grad1_1" x1="43.8%" y1="0%" x2="100%" y2="100%"><stop offset="14.444444444444446%" stop-color="#a7ff00" stop-opacity="1"></stop><stop offset="85.55555555555554%" stop-color="#00e25d" stop-opacity="1"></stop></linearGradient></defs><defs><linearGradient id="grad1_2" x1="43.8%" y1="0%" x2="100%" y2="100%"><stop offset="14.444444444444446%" stop-color="#00be83" stop-opacity="1"></stop><stop offset="85.55555555555554%" stop-color="#00e25d" stop-opacity="1"></stop></linearGradient></defs><defs><linearGradient id="grad1_3" x1="43.8%" y1="0%" x2="100%" y2="100%"><stop offset="14.444444444444446%" stop-color="#00be83" stop-opacity="1"></stop><stop offset="85.55555555555554%" stop-color="#009893" stop-opacity="1"></stop></linearGradient></defs><defs><linearGradient id="grad1_4" x1="43.8%" y1="0%" x2="100%" y2="100%"><stop offset="14.444444444444446%" stop-color="#00718b" stop-opacity="1"></stop><stop offset="85.55555555555554%" stop-color="#009893" stop-opacity="1"></stop></linearGradient></defs><defs><linearGradient id="grad1_5" x1="43.8%" y1="0%" x2="100%" y2="100%"><stop offset="14.444444444444446%" stop-color="#00718b" stop-opacity="1"></stop><stop offset="85.55555555555554%" stop-color="#004c6d" stop-opacity="1"></stop></linearGradient></defs><defs><linearGradient id="grad1_6" x1="43.8%" y1="0%" x2="100%" y2="100%"><stop offset="14.444444444444446%" stop-color="#002941" stop-opacity="1"></stop><stop offset="85.55555555555554%" stop-color="#004c6d" stop-opacity="1"></stop></linearGradient></defs><defs><linearGradient id="grad1_7" x1="43.8%" y1="0%" x2="100%" y2="100%"><stop offset="14.444444444444446%" stop-color="#002941" stop-opacity="1"></stop><stop offset="85.55555555555554%" stop-color="#070913" stop-opacity="1"></stop></linearGradient></defs><defs><linearGradient id="grad2_0" x1="0%" y1="0%" x2="56.3%" y2="100%"><stop offset="14.444444444444446%" stop-color="#a7ff00" stop-opacity="1"></stop><stop offset="85.55555555555554%" stop-color="#a7ff00" stop-opacity="1"></stop></linearGradient></defs><defs><linearGradient id="grad2_1" x1="0%" y1="0%" x2="56.3%" y2="100%"><stop offset="14.444444444444446%" stop-color="#00e25d" stop-opacity="1"></stop><stop offset="85.55555555555554%" stop-color="#a7ff00" stop-opacity="1"></stop></linearGradient></defs><defs><linearGradient id="grad2_2" x1="0%" y1="0%" x2="56.3%" y2="100%"><stop offset="14.444444444444446%" stop-color="#00e25d" stop-opacity="1"></stop><stop offset="85.55555555555554%" stop-color="#00be83" stop-opacity="1"></stop></linearGradient></defs><defs><linearGradient id="grad2_3" x1="0%" y1="0%" x2="56.3%" y2="100%"><stop offset="14.444444444444446%" stop-color="#009893" stop-opacity="1"></stop><stop offset="85.55555555555554%" stop-color="#00be83" stop-opacity="1"></stop></linearGradient></defs><defs><linearGradient id="grad2_4" x1="0%" y1="0%" x2="56.3%" y2="100%"><stop offset="14.444444444444446%" stop-color="#009893" stop-opacity="1"></stop><stop offset="85.55555555555554%" stop-color="#00718b" stop-opacity="1"></stop></linearGradient></defs><defs><linearGradient id="grad2_5" x1="0%" y1="0%" x2="56.3%" y2="100%"><stop offset="14.444444444444446%" stop-color="#004c6d" stop-opacity="1"></stop><stop offset="85.55555555555554%" stop-color="#00718b" stop-opacity="1"></stop></linearGradient></defs><defs><linearGradient id="grad2_6" x1="0%" y1="0%" x2="56.3%" y2="100%"><stop offset="14.444444444444446%" stop-color="#004c6d" stop-opacity="1"></stop><stop offset="85.55555555555554%" stop-color="#002941" stop-opacity="1"></stop></linearGradient></defs><defs><linearGradient id="grad2_7" x1="0%" y1="0%" x2="56.3%" y2="100%"><stop offset="14.444444444444446%" stop-color="#070913" stop-opacity="1"></stop><stop offset="85.55555555555554%" stop-color="#002941" stop-opacity="1"></stop></linearGradient></defs><g transform="translate(1920, 0)"><path d="M0 918C-115.6 897.8 -231.3 877.5 -347.1 838C-462.9 798.4 -579 739.5 -649.1 649.1C-719.3 558.7 -743.5 436.8 -780.7 323.4C-817.8 209.9 -867.9 105 -918 0L0 0Z" fill="#0e1a29"></path><path d="M0 803.3C-101.2 785.5 -202.3 767.8 -303.7 733.2C-405.1 698.6 -506.6 647.1 -568 568C-629.4 488.9 -650.6 382.2 -683.1 282.9C-715.6 183.7 -759.4 91.8 -803.2 0L0 0Z" fill="#003a58"></path><path d="M0 688.5C-86.7 673.3 -173.4 658.1 -260.3 628.5C-347.2 598.8 -434.2 554.6 -486.8 486.8C-539.5 419 -557.6 327.6 -585.5 242.5C-613.4 157.4 -650.9 78.7 -688.5 0L0 0Z" fill="#005e7f"></path><path d="M0 573.8C-72.3 561.1 -144.5 548.4 -216.9 523.7C-289.3 499 -361.9 462.2 -405.7 405.7C-449.5 349.2 -464.7 273 -487.9 202.1C-511.2 131.2 -542.5 65.6 -573.7 0L0 0Z" fill="#008592"></path><path d="M0 459C-57.8 448.9 -115.6 438.8 -173.5 419C-231.5 399.2 -289.5 369.8 -324.6 324.6C-359.6 279.4 -371.8 218.4 -390.3 161.7C-408.9 105 -434 52.5 -459 0L0 0Z" fill="#00ab8e"></path><path d="M0 344.3C-43.4 336.7 -86.7 329.1 -130.2 314.2C-173.6 299.4 -217.1 277.3 -243.4 243.4C-269.7 209.5 -278.8 163.8 -292.8 121.3C-306.7 78.7 -325.5 39.4 -344.2 0L0 0Z" fill="#00d073"></path><path d="M0 229.5C-28.9 224.4 -57.8 219.4 -86.8 209.5C-115.7 199.6 -144.7 184.9 -162.3 162.3C-179.8 139.7 -185.9 109.2 -195.2 80.8C-204.5 52.5 -217 26.2 -229.5 0L0 0Z" fill="#69f140"></path><path d="M0 114.8C-14.5 112.2 -28.9 109.7 -43.4 104.7C-57.9 99.8 -72.4 92.4 -81.1 81.1C-89.9 69.8 -92.9 54.6 -97.6 40.4C-102.2 26.2 -108.5 13.1 -114.7 0L0 0Z" fill="#a7ff00"></path></g><g transform="translate(0, 1080)"><path d="M0 -918C128.5 -909.8 257.1 -901.7 347.9 -839.8C438.6 -777.9 491.6 -662.3 578.4 -578.4C665.2 -494.5 785.9 -442.4 848.1 -351.3C910.4 -260.2 914.2 -130.1 918 0L0 0Z" fill="#0e1a29"></path><path d="M0 -803.2C112.5 -796.1 225 -789 304.4 -734.8C383.8 -680.7 430.1 -579.5 506.1 -506.1C582.1 -432.7 687.6 -387.1 742.1 -307.4C796.6 -227.7 799.9 -113.8 803.3 0L0 0Z" fill="#003a58"></path><path d="M0 -688.5C96.4 -682.4 192.8 -676.3 260.9 -629.9C329 -583.4 368.7 -496.7 433.8 -433.8C498.9 -370.9 589.4 -331.8 636.1 -263.5C682.8 -195.1 685.6 -97.6 688.5 0L0 0Z" fill="#005e7f"></path><path d="M0 -573.7C80.3 -568.7 160.7 -563.6 217.4 -524.9C274.1 -486.2 307.2 -413.9 361.5 -361.5C415.8 -309.1 491.2 -276.5 530.1 -219.6C569 -162.6 571.4 -81.3 573.8 0L0 0Z" fill="#008592"></path><path d="M0 -459C64.3 -454.9 128.5 -450.8 173.9 -419.9C219.3 -389 245.8 -331.1 289.2 -289.2C332.6 -247.3 392.9 -221.2 424.1 -175.7C455.2 -130.1 457.1 -65 459 0L0 0Z" fill="#00ab8e"></path><path d="M0 -344.2C48.2 -341.2 96.4 -338.1 130.4 -314.9C164.5 -291.7 184.3 -248.4 216.9 -216.9C249.5 -185.5 294.7 -165.9 318 -131.7C341.4 -97.6 342.8 -48.8 344.3 0L0 0Z" fill="#00d073"></path><path d="M0 -229.5C32.1 -227.5 64.3 -225.4 87 -210C109.7 -194.5 122.9 -165.6 144.6 -144.6C166.3 -123.6 196.5 -110.6 212 -87.8C227.6 -65 228.5 -32.5 229.5 0L0 0Z" fill="#69f140"></path><path d="M0 -114.7C16.1 -113.7 32.1 -112.7 43.5 -105C54.8 -97.2 61.4 -82.8 72.3 -72.3C83.2 -61.8 98.2 -55.3 106 -43.9C113.8 -32.5 114.3 -16.3 114.8 0L0 0Z" fill="#a7ff00"></path></g></svg>